<?xml version="1.0" encoding="UTF-8"?>
<!DOCTYPE svg PUBLIC "-//W3C//DTD SVG 1.1//EN" "http://www.w3.org/Graphics/SVG/1.1/DTD/svg11.dtd">
<svg xmlns="http://www.w3.org/2000/svg" version="1.1" width="480px" height="480px" style="shape-rendering:geometricPrecision; text-rendering:geometricPrecision; image-rendering:optimizeQuality; fill-rule:evenodd; clip-rule:evenodd" xmlns:xlink="http://www.w3.org/1999/xlink">
<g><path style="opacity:0.996" fill="#f25324" d="M -0.5,-0.5 C 75.8333,-0.5 152.167,-0.5 228.5,-0.5C 228.5,75.8333 228.5,152.167 228.5,228.5C 152.167,228.5 75.8333,228.5 -0.5,228.5C -0.5,152.167 -0.5,75.8333 -0.5,-0.5 Z"/></g>
<g><path style="opacity:0.996" fill="#81bc05" d="M 250.5,-0.5 C 326.833,-0.5 403.167,-0.5 479.5,-0.5C 479.5,75.8333 479.5,152.167 479.5,228.5C 403.167,228.5 326.833,228.5 250.5,228.5C 250.5,152.167 250.5,75.8333 250.5,-0.5 Z"/></g>
<g><path style="opacity:0.996" fill="#05a6ef" d="M -0.5,250.5 C 75.8333,250.5 152.167,250.5 228.5,250.5C 228.5,326.833 228.5,403.167 228.5,479.5C 152.167,479.5 75.8333,479.5 -0.5,479.5C -0.5,403.167 -0.5,326.833 -0.5,250.5 Z"/></g>
<g><path style="opacity:0.996" fill="#feb908" d="M 479.5,250.5 C 479.5,326.833 479.5,403.167 479.5,479.5C 403.167,479.5 326.833,479.5 250.5,479.5C 250.5,403.167 250.5,326.833 250.5,250.5C 326.833,250.5 403.167,250.5 479.5,250.5 Z"/></g>
</svg>
